# xmcd CD database file
#
# Track frame offsets:
#	150
#	29773
#	59396
#	89019
#	118642
#	148265
#	177888
#	207511
#	237134
#	266757
#
# Disc length: 3947 seconds
#
# Revision: 0
# Processed by: cddbd v1.4PL0 Copyright (c) Steve Scherf et al.
# Submitted via: CDex 1.50beta10
#
DISCID=9b0f690a
DTITLE=Alpha Dimensione - L'armonia Del Qi
DYEAR=1900
DGENRE=New Age
TTITLE0=Musica Per La Bellezza - Giorno
TTITLE1=Musica Per La Bellezza - Notte
TTITLE2=Musica Dei 5 Elementi - L' Acqua
TTITLE3=Musica Per Coltivare La Salute In Estate
TTITLE4=Musica Di Regime
TTITLE5=Melodia Tai Chi (Chuan)
TTITLE6=Ritorno Alla Semplicità
TTITLE7=Musica Per Dormire Bene - Il Sonno
TTITLE8=Musica Dei 5 Toni - Il Tono Shang
TTITLE9=Dragon
EXTD=
EXTT0=
EXTT1=
EXTT2=
EXTT3=
EXTT4=
EXTT5=
EXTT6=
EXTT7=
EXTT8=
EXTT9=
PLAYORDER=
